<svg width="25" height="25" viewBox="0 0 25 25" fill="none" xmlns="http://www.w3.org/2000/svg">
<path d="M12.5 22.125L11.1104 20.8791C9.49723 19.4257 8.16355 18.1718 7.10938 17.1177C6.05521 16.0635 5.21667 15.1172 4.59376 14.2786C3.97084 13.4401 3.5356 12.6694 3.28803 11.9666C3.04046 11.2639 2.91667 10.5451 2.91667 9.81038C2.91667 8.309 3.4198 7.05518 4.42605 6.04893C5.4323 5.04268 6.68612 4.53955 8.1875 4.53955C9.01806 4.53955 9.80869 4.71525 10.5594 5.06663C11.3101 5.41802 11.9569 5.91316 12.5 6.55205C13.0431 5.91316 13.6899 5.41802 14.4406 5.06663C15.1913 4.71525 15.9819 4.53955 16.8125 4.53955C18.3139 4.53955 19.5677 5.04268 20.574 6.04893C21.5802 7.05518 22.0833 8.309 22.0833 9.81038C22.0833 10.5451 21.9596 11.2639 21.712 11.9666C21.4644 12.6694 21.0292 13.4401 20.4063 14.2786C19.7833 15.1172 18.9448 16.0635 17.8906 17.1177C16.8365 18.1718 15.5028 19.4257 13.8896 20.8791L12.5 22.125ZM12.5 19.5375C14.0333 18.1639 15.2951 16.9859 16.2854 16.0036C17.2757 15.0213 18.0583 14.1668 18.6333 13.4401C19.2083 12.7133 19.6076 12.0665 19.8313 11.4994C20.0549 10.9324 20.1667 10.3694 20.1667 9.81038C20.1667 8.85205 19.8472 8.05344 19.2083 7.41455C18.5694 6.77566 17.7708 6.45622 16.8125 6.45622C16.0618 6.45622 15.367 6.66785 14.7281 7.09111C14.0892 7.51438 13.65 8.05344 13.4104 8.7083H11.5896C11.35 8.05344 10.9108 7.51438 10.2719 7.09111C9.63299 6.66785 8.9382 6.45622 8.1875 6.45622C7.22917 6.45622 6.43056 6.77566 5.79167 7.41455C5.15278 8.05344 4.83334 8.85205 4.83334 9.81038C4.83334 10.3694 4.94514 10.9324 5.16876 11.4994C5.39237 12.0665 5.79167 12.7133 6.36667 13.4401C6.94167 14.1668 7.72431 15.0213 8.71459 16.0036C9.70487 16.9859 10.9667 18.1639 12.5 19.5375Z" fill="#071327"/>
</svg>
