<svg width="154" height="154" viewBox="0 0 154 154" fill="none" xmlns="http://www.w3.org/2000/svg">
<g clip-path="url(#clip0_660_632)">
<path d="M115.5 0H38.5C17.236 0 0 17.2288 0 38.5V115.5C0 136.771 17.236 154 38.5 154H115.5C136.764 154 154 136.771 154 115.5V38.5C154 17.2288 136.764 0 115.5 0Z" fill="#AAC216"/>
<path d="M35.8438 73.5528L35.9289 73.4741C35.8732 74.3603 35.8438 75.2468 35.8438 76.1337C35.8438 76.8116 35.8607 77.4891 35.8922 78.1664L35.8922 78.1671C36.9559 99.8523 54.9698 115.197 77 115.197C99.0302 115.197 117.044 99.8523 118.108 78.1671L118.108 78.1664C118.139 77.4891 118.156 76.8116 118.156 76.1337C118.156 75.2468 118.127 74.3603 118.071 73.4741L118.156 73.5528V72.9813V47.5233C118.156 44.4405 115.094 42.2711 112.192 43.3422C112.192 43.3423 112.192 43.3424 112.191 43.3425L94.9793 49.5862C89.5486 46.952 83.4475 45.4686 77 45.4686C70.5525 45.4686 64.4514 46.952 59.0207 49.5862L41.8086 43.3425C41.8083 43.3424 41.8081 43.3423 41.8079 43.3422C38.9065 42.271 35.8438 44.4405 35.8438 47.5233V72.9813V73.5528ZM41.5099 49.2517L57.183 54.9528C58.5647 55.4571 60.0939 55.382 61.4168 54.7258C66.1139 52.4323 71.3988 51.1421 77 51.1421C82.6012 51.1421 87.8861 52.4323 92.5832 54.7258C93.9061 55.382 95.4353 55.4571 96.817 54.9528L112.49 49.2517V71.6784C112.374 72.1996 112.333 72.7447 112.378 73.2904C112.452 74.2221 112.49 75.1779 112.49 76.1337C112.49 95.3737 96.9806 109.523 77 109.523C57.0194 109.523 41.5099 95.3737 41.5099 76.1337C41.5099 75.1778 41.5481 74.2218 41.6222 73.29C41.6668 72.7444 41.6261 72.1994 41.5099 71.6784V49.2517Z" fill="#FAFAF5" stroke="#FAFAF5" stroke-width="0.5"/>
<path d="M72.6159 50.5746C72.6159 49.016 71.3458 47.75 69.7816 47.75C68.2171 47.75 66.9497 49.0163 66.9497 50.5746V58.9691C66.9497 60.5273 68.2171 61.7937 69.7816 61.7937C71.3458 61.7937 72.6159 60.5276 72.6159 58.9691V50.5746Z" fill="#FAFAF5" stroke="#FAFAF5" stroke-width="0.5"/>
<path d="M87.0556 50.5746C87.0556 49.016 85.7855 47.75 84.2213 47.75C82.6568 47.75 81.3894 49.0163 81.3894 50.5746V54.1564C81.3894 55.7146 82.6568 56.9809 84.2213 56.9809C85.7855 56.9809 87.0556 55.7149 87.0556 54.1564V50.5746Z" fill="#FAFAF5" stroke="#FAFAF5" stroke-width="0.5"/>
<path d="M86.2061 83.0393L86.2061 83.0393L86.2079 83.0374C86.6358 82.5619 86.3011 81.8262 85.666 81.8262H68.0618C67.4294 81.8262 67.087 82.5605 67.5206 83.0382L67.5205 83.0382L67.5216 83.0393L76.3243 92.6146C76.6136 92.9414 77.1141 92.9414 77.4034 92.6146L86.2061 83.0393Z" fill="#FAFAF5" stroke="#FAFAF5" stroke-width="0.5"/>
<path d="M77 89V96L83 98" stroke="#FAFAF5" stroke-width="5" stroke-linecap="round" stroke-linejoin="round"/>
<path d="M77 89V96L71 98" stroke="#FAFAF5" stroke-width="5" stroke-linecap="round" stroke-linejoin="round"/>
<path d="M55.5 71C55.5 71 59.2043 74 62 74C64.7957 74 68.5 71 68.5 71" stroke="#FAFAF5" stroke-width="5" stroke-linecap="round" stroke-linejoin="round"/>
<path d="M85 71C85 71 88.7043 74 91.5 74C94.2957 74 98 71 98 71" stroke="#FAFAF5" stroke-width="5" stroke-linecap="round" stroke-linejoin="round"/>
<path fill-rule="evenodd" clip-rule="evenodd" d="M98.9758 80.5046C98.8287 80.0392 98.1703 80.0387 98.0225 80.5039L96.2307 86.1429H96.2411C96.0865 86.4679 96 86.8316 96 87.2154C96 88.5961 97.1193 89.7154 98.5 89.7154C99.8807 89.7154 101 88.5961 101 87.2154C101 86.8284 100.912 86.4619 100.755 86.1348L98.9758 80.5046Z" fill="#ED6656"/>
</g>
<defs>
<clipPath id="clip0_660_632">
<rect width="154" height="154" fill="white"/>
</clipPath>
</defs>
</svg>
