<svg width="25" height="25" viewBox="0 0 25 25" fill="none" xmlns="http://www.w3.org/2000/svg">
<path d="M12.5 12.5C13.0156 12.5 13.457 12.314 13.8242 11.9419C14.1914 11.5698 14.375 11.1225 14.375 10.6C14.375 10.0775 14.1914 9.63021 13.8242 9.25812C13.457 8.88604 13.0156 8.7 12.5 8.7C11.9844 8.7 11.543 8.88604 11.1758 9.25812C10.8086 9.63021 10.625 10.0775 10.625 10.6C10.625 11.1225 10.8086 11.5698 11.1758 11.9419C11.543 12.314 11.9844 12.5 12.5 12.5ZM12.5 19.4825C14.4063 17.7092 15.8203 16.0981 16.7422 14.6494C17.6641 13.2006 18.125 11.9142 18.125 10.79C18.125 9.06417 17.582 7.65104 16.4961 6.55062C15.4102 5.45021 14.0781 4.9 12.5 4.9C10.9219 4.9 9.58984 5.45021 8.50391 6.55062C7.41797 7.65104 6.875 9.06417 6.875 10.79C6.875 11.9142 7.33594 13.2006 8.25781 14.6494C9.17969 16.0981 10.5937 17.7092 12.5 19.4825ZM12.5 22C9.98437 19.8308 8.10547 17.816 6.86328 15.9556C5.62109 14.0952 5 12.3733 5 10.79C5 8.415 5.75391 6.52292 7.26172 5.11375C8.76953 3.70458 10.5156 3 12.5 3C14.4844 3 16.2305 3.70458 17.7383 5.11375C19.2461 6.52292 20 8.415 20 10.79C20 12.3733 19.3789 14.0952 18.1367 15.9556C16.8945 17.816 15.0156 19.8308 12.5 22Z" fill="#071327"/>
</svg>
